HIERARCHY
ROOT Hips
{
    OFFSET   0.000000   0.000000   0.000000
    CHANNELS 6 Xposition Yposition Zposition Zrotation Xrotation Yrotation
    JOINT Chest
    {
        OFFSET   0.000000   8.007230   0.000000
        CHANNELS 3 Zrotation Xrotation Yrotation
        JOINT Chest2
        {
            OFFSET   0.000000  22.077100   0.000000
            CHANNELS 3 Zrotation Xrotation Yrotation
            JOINT Neck
            {
                OFFSET   0.000000  23.255100   0.000000
                CHANNELS 3 Zrotation Xrotation Yrotation
                JOINT Head
                {
                    OFFSET   0.000000  14.370100   1.956600
                    CHANNELS 3 Zrotation Xrotation Yrotation
                    End Site
                    {
                        OFFSET   0.000000  19.566000   0.000000
                    }
                }
            }
            JOINT LeftCollar
            {
                OFFSET   3.911900  19.017000  -0.467063
                CHANNELS 3 Zrotation Xrotation Yrotation
                JOINT LeftShoulder
                {
                    OFFSET  10.383700   0.000000   0.000000
                    CHANNELS 3 Zrotation Xrotation Yrotation
                    JOINT LeftElbow
                    {
                        OFFSET  26.662100   0.001193   0.000980
                        CHANNELS 3 Zrotation Xrotation Yrotation
                        JOINT LeftWrist
                        {
                            OFFSET  28.869000  -0.000059  -0.000082
                            CHANNELS 3 Zrotation Xrotation Yrotation
                            JOINT LeftFinger0
                            {
                                OFFSET   2.044650  -2.323450   3.252850
                                CHANNELS 3 Zrotation Xrotation Yrotation
                                JOINT LeftFinger01
                                {
                                    OFFSET   3.088130   0.000000   0.000000
                                    CHANNELS 3 Zrotation Xrotation Yrotation
                                    JOINT LeftFinger02
                                    {
                                        OFFSET   2.639460   0.000000   0.000000
                                        CHANNELS 3 Zrotation Xrotation Yrotation
                                        End Site
                                        {
                                            OFFSET   2.582190   0.000000   0.000000
                                        }
                                    }
                                }
                            }
                            JOINT LeftFinger1
                            {
                                OFFSET   8.364480   0.000000   3.252850
                                CHANNELS 3 Zrotation Xrotation Yrotation
                                JOINT LeftFinger11
                                {
                                    OFFSET   4.646930   0.000000   0.000000
                                    CHANNELS 3 Zrotation Xrotation Yrotation
                                    JOINT LeftFinger12
                                    {
                                        OFFSET   2.323470   0.000000   0.000000
                                        CHANNELS 3 Zrotation Xrotation Yrotation
                                        End Site
                                        {
                                            OFFSET   2.273050   0.000000   0.000000
                                        }
                                    }
                                }
                            }
                            JOINT LeftFinger2
                            {
                                OFFSET   8.364490   0.000016   1.078090
                                CHANNELS 3 Zrotation Xrotation Yrotation
                                JOINT LeftFinger21
                                {
                                    OFFSET   5.111610   0.000000   0.000000
                                    CHANNELS 3 Zrotation Xrotation Yrotation
                                    JOINT LeftFinger22
                                    {
                                        OFFSET   2.788150   0.000016   0.000000
                                        CHANNELS 3 Zrotation Xrotation Yrotation
                                        End Site
                                        {
                                            OFFSET   2.727660   0.000000   0.000000
                                        }
                                    }
                                }
                            }
                            JOINT LeftFinger3
                            {
                                OFFSET   7.899780   0.000015  -1.078090
                                CHANNELS 3 Zrotation Xrotation Yrotation
                                JOINT LeftFinger31
                                {
                                    OFFSET   4.646930   0.000000   0.000000
                                    CHANNELS 3 Zrotation Xrotation Yrotation
                                    JOINT LeftFinger32
                                    {
                                        OFFSET   2.323470   0.000000   0.000000
                                        CHANNELS 3 Zrotation Xrotation Yrotation
                                        End Site
                                        {
                                            OFFSET   2.273050   0.000000   0.000000
                                        }
                                    }
                                }
                            }
                            JOINT LeftFinger4
                            {
                                OFFSET   7.435090   0.000000  -3.252850
                                CHANNELS 3 Zrotation Xrotation Yrotation
                                JOINT LeftFinger41
                                {
                                    OFFSET   3.717550   0.000000   0.000000
                                    CHANNELS 3 Zrotation Xrotation Yrotation
                                    JOINT LeftFinger42
                                    {
                                        OFFSET   1.858770   0.000000   0.000000
                                        CHANNELS 3 Zrotation Xrotation Yrotation
                                        End Site
                                        {
                                            OFFSET   1.818440   0.000000   0.000000
                                        }
                                    }
                                }
                            }
                        }
                    }
                }
            }
            JOINT RightCollar
            {
                OFFSET  -3.911910  19.017000  -0.467062
                CHANNELS 3 Zrotation Xrotation Yrotation
                JOINT RightShoulder
                {
                    OFFSET -10.383700   0.000014   0.000000
                    CHANNELS 3 Zrotation Xrotation Yrotation
                    JOINT RightElbow
                    {
                        OFFSET -26.662100   0.001225   0.001091
                        CHANNELS 3 Zrotation Xrotation Yrotation
                        JOINT RightWrist
                        {
                            OFFSET -28.869000  -0.000020  -0.000085
                            CHANNELS 3 Zrotation Xrotation Yrotation
                            JOINT RightFinger0
                            {
                                OFFSET  -2.044650  -2.323490   3.252850
                                CHANNELS 3 Zrotation Xrotation Yrotation
                                JOINT RightFinger01
                                {
                                    OFFSET  -3.088130   0.000000   0.000000
                                    CHANNELS 3 Zrotation Xrotation Yrotation
                                    JOINT RightFinger02
                                    {
                                        OFFSET  -2.639460   0.000000   0.000000
                                        CHANNELS 3 Zrotation Xrotation Yrotation
                                        End Site
                                        {
                                            OFFSET  -2.582190   0.000000   0.000000
                                        }
                                    }
                                }
                            }
                            JOINT RightFinger1
                            {
                                OFFSET  -8.364480   0.000000   3.252850
                                CHANNELS 3 Zrotation Xrotation Yrotation
                                JOINT RightFinger11
                                {
                                    OFFSET  -4.646930   0.000000   0.000000
                                    CHANNELS 3 Zrotation Xrotation Yrotation
                                    JOINT RightFinger12
                                    {
                                        OFFSET  -2.323470   0.000000   0.000000
                                        CHANNELS 3 Zrotation Xrotation Yrotation
                                        End Site
                                        {
                                            OFFSET  -2.273050   0.000000   0.000000
                                        }
                                    }
                                }
                            }
                            JOINT RightFinger2
                            {
                                OFFSET  -8.364480   0.000000   1.078090
                                CHANNELS 3 Zrotation Xrotation Yrotation
                                JOINT RightFinger21
                                {
                                    OFFSET  -5.111620   0.000000   0.000000
                                    CHANNELS 3 Zrotation Xrotation Yrotation
                                    JOINT RightFinger22
                                    {
                                        OFFSET  -2.788160   0.000000   0.000000
                                        CHANNELS 3 Zrotation Xrotation Yrotation
                                        End Site
                                        {
                                            OFFSET  -2.727660   0.000000   0.000000
                                        }
                                    }
                                }
                            }
                            JOINT RightFinger3
                            {
                                OFFSET  -7.899780   0.000000  -1.078090
                                CHANNELS 3 Zrotation Xrotation Yrotation
                                JOINT RightFinger31
                                {
                                    OFFSET  -4.646930   0.000000   0.000000
                                    CHANNELS 3 Zrotation Xrotation Yrotation
                                    JOINT RightFinger32
                                    {
                                        OFFSET  -2.323470   0.000000   0.000000
                                        CHANNELS 3 Zrotation Xrotation Yrotation
                                        End Site
                                        {
                                            OFFSET  -2.273050   0.000000   0.000000
                                        }
                                    }
                                }
                            }
                            JOINT RightFinger4
                            {
                                OFFSET  -7.435090   0.000000  -3.252850
                                CHANNELS 3 Zrotation Xrotation Yrotation
                                JOINT RightFinger41
                                {
                                    OFFSET  -3.717550   0.000000   0.000000
                                    CHANNELS 3 Zrotation Xrotation Yrotation
                                    JOINT RightFinger42
                                    {
                                        OFFSET  -1.858760   0.000000   0.000000
                                        CHANNELS 3 Zrotation Xrotation Yrotation
                                        End Site
                                        {
                                            OFFSET  -1.818440   0.000000   0.000000
                                        }
                                    }
                                }
                            }
                        }
                    }
                }
            }
        }
    }
    JOINT LeftHip
    {
        OFFSET   9.783030   0.000000   0.000000
        CHANNELS 3 Zrotation Xrotation Yrotation
        JOINT LeftKnee
        {
            OFFSET   0.000063 -41.789100   0.000608
            CHANNELS 3 Zrotation Xrotation Yrotation
            JOINT LeftAnkle
            {
                OFFSET   0.000048 -41.133200  -0.000184
                CHANNELS 3 Zrotation Xrotation Yrotation
                JOINT LeftToe
                {
                    OFFSET   0.000000  -6.358960  14.674500
                    CHANNELS 3 Zrotation Xrotation Yrotation
                    End Site
                    {
                        OFFSET   0.000000   0.000000   3.913200
                    }
                }
            }
        }
    }
    JOINT RightHip
    {
        OFFSET  -9.783030   0.000000   0.000000
        CHANNELS 3 Zrotation Xrotation Yrotation
        JOINT RightKnee
        {
            OFFSET   0.000071 -41.789100   0.001239
            CHANNELS 3 Zrotation Xrotation Yrotation
            JOINT RightAnkle
            {
                OFFSET   0.000037 -41.133200  -0.000166
                CHANNELS 3 Zrotation Xrotation Yrotation
                JOINT RightToe
                {
                    OFFSET   0.000000  -6.358960  14.674500
                    CHANNELS 3 Zrotation Xrotation Yrotation
                    End Site
                    {
                        OFFSET   0.000000   0.000000   3.913200
                    }
                }
            }
        }
    }
}
MOTION
Frames: 6
Frame Time:   0.016667
  0.257042  90.061200  -3.093020  -0.999081  -1.937650  -2.983480   0.095793   2.299240  -0.227645   0.200982   4.598090  -0.459704   1.538610   0.839794  -0.027964   2.527380   1.699670   8.906960  -5.455430  -0.521839   6.774180 -73.406800  16.974600  -1.475130  -4.157710  -4.935390 -15.143400  14.636700   4.277150   7.654840  50.038600  42.982200 -86.152300 -22.733500   0.003598   0.006419  -6.366720   0.015327   0.004670 -27.708900   8.385900 -15.518800 -23.618300   0.005981   0.008386 -16.532800   0.000081   0.005829 -28.209000  -0.283326   0.528243 -33.466500   0.005198   0.008440 -22.288700  -0.004219   0.004995 -25.548600  -0.258404   0.540864 -25.550500   0.011421   0.004438 -17.016600   0.005054   0.003173 -23.667800  -2.986590   6.782190 -35.752900   0.001396   0.004255 -23.811400  -0.012714   0.003686  10.693200   2.147530   8.628180  67.715000  10.342600  -2.161170   1.302620  -2.678810  17.261300 -14.922300 -13.136100  -1.955840 -43.878800  44.167000  85.516600  30.230800   0.003274  -0.002166  10.115400   0.002584  -0.008010  35.703700   2.618190   3.636450  29.282300   0.003548  -0.010061  20.497600  -0.007217  -0.009329  28.042700  -1.748640  -3.278280  32.639900  -0.000092  -0.005855  21.738200  -0.002554  -0.001570  28.362300  -3.958420  -7.286000  37.644800   0.005679  -0.004937  25.071400  -0.007744  -0.006247  38.256200  -5.153290  -6.499390  57.827800  -0.004464  -0.008149  38.513400  -0.005799  -0.001947   1.154350   1.314620   4.209220   0.631847   0.823491  17.869900  -5.068140  -1.991040   6.207940   0.000000   0.000000  -0.000000   1.828060  -0.243923  -6.349110  -2.100250   4.755890  -9.467270  -8.259650   0.335599   3.920640   0.000000   0.000000   0.000000
  0.252315  90.061200  -3.103050  -0.999699  -1.954930  -2.974080   0.095770   2.309770  -0.226258   0.200939   4.619150  -0.456936   1.540120   0.869728  -0.027957   2.530680   1.760030   8.891760  -5.448040  -0.508917   6.772210 -73.402500  16.981200  -1.481180  -4.153140  -4.913310 -15.189100  14.625800   4.238950   7.624600  50.049700  42.991300 -86.168000 -22.730800   0.003597   0.006399  -6.365380   0.015338   0.004658 -27.711400   8.391000 -15.526200 -23.618000   0.005973   0.008372 -16.532600   0.000079   0.005823 -28.209200  -0.274622   0.512008 -33.466100   0.005192   0.008447 -22.288400  -0.004214   0.004991 -25.549000  -0.250468   0.524244 -25.550700   0.011417   0.004433 -17.016800   0.005052   0.003168 -23.670900  -2.973130   6.750160 -35.758900   0.001394   0.004255 -23.815400  -0.012717   0.003682  10.694600   2.147500   8.593660  67.776300  10.363700  -2.190910   1.244530  -2.610540  17.400600 -14.983900 -12.809700  -1.925230 -44.235200  44.501200  85.999800  30.108800   0.003256  -0.002122  10.054400   0.002570  -0.007991  35.674500   2.691530   3.741930  29.263100   0.003542  -0.010053  20.484200  -0.007217  -0.009312  28.036100  -1.679840  -3.150280  32.569500  -0.000090  -0.005830  21.691300  -0.002555  -0.001570  28.365200  -3.875300  -7.133450  37.541400   0.005676  -0.004911  25.002500  -0.007733  -0.006243  38.191800  -5.038040  -6.369080  57.713200  -0.004463  -0.008142  38.437100  -0.005793  -0.001931   1.153100   1.320430   4.207730   0.632079   0.825731  17.870200  -5.072450  -1.984000   6.202380  -0.000000   0.000000  -0.000000   1.828420  -0.242535  -6.349070  -2.098530   4.774040  -9.473050  -8.259560   0.335320   3.912530   0.000000   0.000000  -0.000000
  0.243500  90.061200  -3.119650  -1.000790  -1.986010  -2.956400   0.095645   2.329810  -0.221453   0.200563   4.659240  -0.447343   1.543200   0.917499  -0.027945   2.537060   1.856430   8.864270  -5.437520  -0.486877   6.759310 -73.390500  16.989400  -1.492840  -4.142520  -4.860170 -15.286400  14.605700   4.178600   7.578810  50.066800  43.005200 -86.199400 -22.722300   0.003587   0.006362  -6.361140   0.015366   0.004630 -27.714800   8.402450 -15.544100 -23.617600   0.005960   0.008336 -16.532300   0.000070   0.005804 -28.209600  -0.258903   0.482694 -33.465700   0.005178   0.008460 -22.288200  -0.004201   0.004983 -25.549700  -0.236137   0.494232 -25.551200   0.011410   0.004419 -17.017100   0.005046   0.003156 -23.676400  -2.949710   6.694480 -35.769000   0.001386   0.004253 -23.822100  -0.012723   0.003673  10.697400   2.146230   8.539140  67.886000  10.384300  -2.289710   1.160020  -2.427540  17.757600 -15.153700 -12.071100  -1.826470 -44.730600  44.870400  86.734400  29.881300   0.003222  -0.002016   9.940690   0.002533  -0.007959  35.619000   2.842590   3.959150  29.226700   0.003525  -0.010035  20.458700  -0.007217  -0.009272  28.022200  -1.551780  -2.912070  32.430600  -0.000076  -0.005770  21.598800  -0.002562  -0.001570  28.369900  -3.724830  -6.857770  37.352200   0.005666  -0.004850  24.876500  -0.007704  -0.006232  38.085400  -4.830910  -6.132270  57.521600  -0.004461  -0.008125  38.309400  -0.005779  -0.001894   1.151260   1.334910   4.204340   0.632992   0.827971  17.870500  -5.079680  -1.973080   6.192190  -0.000000   0.000000   0.000000   1.829330  -0.237130  -6.348970  -2.097740   4.803560  -9.479000  -8.259290   0.333348   3.894180  -0.000000   0.000000   0.000000
  0.234059  90.061200  -3.132210  -1.001700  -2.014680  -2.936940   0.095378   2.350130  -0.211753   0.199695   4.699880  -0.427963   1.547990   0.951649  -0.027934   2.545150   1.925510   8.835170  -5.431850  -0.466749   6.730500 -73.368200  16.991200  -1.506390  -4.128700  -4.787620 -15.406100  14.585800   4.137080   7.552650  50.076300  43.014000 -86.236500 -22.707600   0.003555   0.006320  -6.353790   0.015411   0.004597 -27.715400   8.418850 -15.572300 -23.619900   0.005951   0.008285 -16.533900   0.000031   0.005765 -28.210000  -0.243076   0.453185 -33.468000   0.005158   0.008476 -22.289700  -0.004180   0.004977 -25.550400  -0.221708   0.464020 -25.551600   0.011404   0.004398 -17.017300   0.005034   0.003140 -23.682100  -2.927440   6.642400 -35.774700   0.001371   0.004248 -23.825900  -0.012733   0.003658  10.723100   2.124460   8.502500  67.992700  10.334900  -2.472340   1.087970  -2.130770  18.285300 -15.444700 -11.020000  -1.655930 -44.929400  44.922600  87.166900  29.638500   0.003187  -0.001815   9.819310   0.002470  -0.007933  35.561700   3.040000   4.241680  29.190700   0.003493  -0.010013  20.433400  -0.007215  -0.009215  28.004600  -1.411360  -2.650920  32.262200  -0.000032  -0.005680  21.486600  -0.002587  -0.001564  28.374100  -3.568060  -6.571270  37.148600   0.005648  -0.004760  24.740900  -0.007661  -0.006215  37.986200  -4.617770  -5.883560  57.333700  -0.004456  -0.008099  38.184200  -0.005757  -0.001839   1.152440   1.357290   4.199210   0.634712   0.826449  17.868900  -5.086690  -1.966440   6.181170  -0.000000   0.000000   0.000000   1.830660  -0.227131  -6.348890  -2.102010   4.825110  -9.477950  -8.260080   0.324179   3.868900  -0.000000   0.000000  -0.000000
  0.224337  90.061100  -3.145590  -1.002840  -2.048090  -2.917260   0.095177   2.375330  -0.200307   0.198927   4.750290  -0.405101   1.551210   0.982480  -0.027928   2.551790   1.987910   8.808570  -5.430330  -0.448888   6.686680 -73.345700  16.991400  -1.520050  -4.108780  -4.687000 -15.555800  14.564000   4.099940   7.530390  50.086300  43.021300 -86.278100 -22.687000   0.003513   0.006273  -6.343520   0.015470   0.004550 -27.716300   8.436650 -15.602900 -23.624400   0.005941   0.008219 -16.537100   0.000000   0.005714 -28.210300  -0.227208   0.423599 -33.473600   0.005131   0.008493 -22.293400  -0.004154   0.004969 -25.550900  -0.207244   0.433724 -25.551900   0.011394   0.004372 -17.017500   0.005019   0.003122 -23.689900  -2.906870   6.593070 -35.786000   0.001352   0.004245 -23.833500  -0.012746   0.003640  10.768700   2.082360   8.467850  68.097300  10.229800  -2.712620   0.992945  -1.764680  19.003900 -15.802500  -9.836760  -1.414360 -44.871800  44.936000  87.359000  29.386100   0.003150  -0.001666   9.693080   0.002390  -0.007905  35.491300   3.239750   4.530470  29.145100   0.003452  -0.009987  20.401500  -0.007212  -0.009144  27.985600  -1.274620  -2.396630  32.091400   0.000000  -0.005576  21.372800  -0.002606  -0.001558  28.377200  -3.419910  -6.300860  36.958200   0.005625  -0.004654  24.614100  -0.007607  -0.006195  37.921100  -4.418470  -5.647150  57.211300  -0.004452  -0.008066  38.102700  -0.005730  -0.001773   1.156080   1.384060   4.194020   0.636906   0.824937  17.864900  -5.091520  -1.960090   6.170910  -0.000000   0.000000  -0.000000   1.832480  -0.211791  -6.348670  -2.107330   4.846880  -9.471830  -8.261270   0.309677   3.838680   0.000000   0.000000   0.000000
  0.215554  90.061000  -3.161500  -1.004370  -2.087390  -2.900800   0.094919   2.407390  -0.187648   0.197740   4.814430  -0.379828   1.551140   1.008480  -0.027936   2.553710   2.040400   8.792210  -5.433430  -0.437035   6.624930 -73.334100  16.950700  -1.531900  -4.080930  -4.543270 -15.733300  14.540700   4.059220   7.510760  50.100800  43.025100 -86.310500 -22.653900   0.003475   0.006224  -6.326960   0.015546   0.004480 -27.721100   8.450860 -15.624800 -23.631400   0.005923   0.008139 -16.542100   0.000000   0.005655 -28.210400  -0.213736   0.398479 -33.484700   0.005096   0.008511 -22.300800  -0.004125   0.004958 -25.550900  -0.194995   0.407959 -25.551700   0.011379   0.004341 -17.017400   0.005000   0.003100 -23.713200  -2.894340   6.557290 -35.821400   0.001330   0.004245 -23.857100  -0.012757   0.003617  10.825200   2.027400   8.432370  68.182400  10.084900  -3.001040   0.864739  -1.368140  19.928600 -16.168600  -8.744720  -1.089300 -44.594200  44.731500  87.263500  29.176800   0.003114  -0.001659   9.588420   0.002298  -0.007868  35.406700   3.374540   4.732800  29.084400   0.003405  -0.009956  20.359000  -0.007210  -0.009066  27.969200  -1.185390  -2.230570  31.952000   0.000000  -0.005469  21.280000  -0.002591  -0.001568  28.377900  -3.331280  -6.139000  36.828200   0.005597  -0.004544  24.527500  -0.007545  -0.006172  37.920400  -4.303260  -5.502740  57.197900  -0.004447  -0.008031  38.093900  -0.005701  -0.001704   1.160760   1.408110   4.191290   0.638652   0.831073  17.858100  -5.092860  -1.952180   6.164200   0.000000   0.000000   0.000000   1.834450  -0.189693  -6.348410  -2.110800   4.870080  -9.454230  -8.261210   0.293081   3.804370  -0.000000   0.000000   0.000000
